<svg width="358.852490234375px" height="121.4052734375px" xmlns="http://www.w3.org/2000/svg" viewBox="70.5737548828125 14.29736328125 358.852490234375 121.4052734375" style="background: none;" preserveAspectRatio="xMidYMid"><defs><filter id="editing-lego" x="-100%" y="-100%" width="300%" height="300%"><feFlood flood-color="#000" result="f1"></feFlood><feFlood flood-color="#ffffff" result="f2"></feFlood><feMorphology operator="dilate" radius="3" in="SourceAlpha"></feMorphology><feConvolveMatrix order="5,5" divisor="1" result="cm1" kernelMatrix="0 1 1 1 0  1 0 0 0 1  1 0 0 0 1  1 0 0 0 1  0 1 1 1 0"></feConvolveMatrix><feComposite operator="in" in="f1" in2="cm1" result="c1"></feComposite><feMorphology operator="dilate" radius="3"></feMorphology><feConvolveMatrix order="5,5" divisor="1" result="cm2" kernelMatrix="0 1 1 1 0  1 0 0 0 1  1 0 0 0 1  1 0 0 0 1  0 1 1 1 0"></feConvolveMatrix><feComposite operator="in" in="f2" in2="cm2" result="c2"></feComposite><feMerge><feMergeNode in="c2"></feMergeNode><feMergeNode in="c1"></feMergeNode><feMergeNode in="SourceGraphic"></feMergeNode></feMerge></filter></defs><g filter="url(#editing-lego)"><g transform="translate(127.21499818563461, 99)"><path d="M27.84-9.86L27.84-9.86L27.84-9.86Q29.06-8.32 29.06-5.34L29.06-5.34L29.06-5.34Q29.06-2.37 26.78-0.54L26.78-0.54L26.78-0.54Q24.51 1.28 20.54 1.28L20.54 1.28L20.54 1.28Q18.24 1.28 14.66 0.77L14.66 0.77L14.66 0.77Q7.62-0.32 5.60-0.32L5.60-0.32L5.60-0.32Q3.58-0.32 2.75-0.22L2.75-0.22L2.75-0.22Q1.92-0.13 0.58 0L0.58 0L8.32-42.24L22.34-42.24L15.94-7.04L15.94-7.04Q16.77-6.91 17.54-6.91L17.54-6.91L19.14-6.91L19.14-6.91Q24.51-6.91 27.84-9.86ZM48.70-3.52L48.70-3.52L48.70-3.52Q46.72 1.28 40.38 1.28L40.38 1.28L40.38 1.28Q37.12 1.28 35.07-0.96L35.07-0.96L35.07-0.96Q33.34-2.94 33.34-4.93L33.34-4.93L33.34-4.93Q33.34-10.11 35.71-20.22L35.71-20.22L38.08-32.64L51.07-33.92L47.17-13.70L47.17-13.70Q46.08-8.96 46.08-7.30L46.08-7.30L46.08-7.30Q46.08-3.65 48.70-3.52ZM39.23-41.54L39.23-41.54L39.23-41.54Q39.23-44.03 41.31-45.38L41.31-45.38L41.31-45.38Q43.39-46.72 46.40-46.72L46.40-46.72L46.40-46.72Q49.41-46.72 51.23-45.38L51.23-45.38L51.23-45.38Q53.06-44.03 53.06-41.54L53.06-41.54L53.06-41.54Q53.06-39.04 51.04-37.76L51.04-37.76L51.04-37.76Q49.02-36.48 46.02-36.48L46.02-36.48L46.02-36.48Q43.01-36.48 41.12-37.76L41.12-37.76L41.12-37.76Q39.23-39.04 39.23-41.54ZM81.22 1.28L81.22 1.28L81.22 1.28Q73.47 1.28 73.47-4.74L73.47-4.74L73.47-4.74Q73.54-6.40 74.05-9.22L74.05-9.22L75.20-15.10L75.20-15.10Q76.93-23.42 76.93-25.28L76.93-25.28L76.93-25.28Q76.93-28.99 74.75-28.99L74.75-28.99L74.75-28.99Q71.10-28.99 69.18-19.46L69.18-19.46L65.41 0L52.54 1.28L59.20-32.70L69.70-33.92L68.67-27.65L68.67-27.65Q71.68-33.92 80.90-33.92L80.90-33.92L80.90-33.92Q85.38-33.92 87.26-32.03L87.26-32.03L87.26-32.03Q89.15-30.14 89.15-25.92L89.15-25.92L89.15-25.92Q89.15-21.95 87.10-12.67L87.10-12.67L87.10-12.67Q86.14-8.51 86.14-6.94L86.14-6.94L86.14-6.94Q86.14-5.38 87.01-4.48L87.01-4.48L87.01-4.48Q87.87-3.58 89.15-3.46L89.15-3.46L89.15-3.46Q88.51-1.28 86.30 0L86.30 0L86.30 0Q84.10 1.28 81.22 1.28ZM107.33 0L93.70 0L100.99-38.91L101.70-42.24L115.39-42.24L107.33 0ZM133.31-3.78L133.31-3.78L133.31-3.78Q131.58 1.28 124.93 1.28L124.93 1.28L124.93 1.28Q120 1.28 116.61-4.61L116.61-4.61L116.61-4.61Q113.15-10.50 112.51-20.10L112.51-20.10L112.51-20.10Q119.55-32.96 124.42-38.27L124.42-38.27L124.42-38.27Q129.09-43.33 133.95-43.33L133.95-43.33L133.95-43.33Q136.58-43.33 138.46-41.92L138.46-41.92L138.46-41.92Q140.35-40.51 140.80-38.27L140.80-38.27L140.80-38.27Q138.62-37.38 137.60-36.67L137.60-36.67L137.60-36.67Q135.04-34.75 131.58-30.46L131.58-30.46L125.76-23.49L125.76-23.49Q124.35-21.82 123.78-21.06L123.78-21.06L123.78-21.06Q124.74-15.68 127.62-10.37L127.62-10.37L127.62-10.37Q130.37-5.31 133.31-3.78ZM139.74-1.92L139.74-1.92L139.74-1.92Q138.24-3.58 137.57-6.21L137.57-6.21L137.57-6.21Q136.90-8.83 136.90-13.12L136.90-13.12L136.90-13.12Q136.90-17.41 138.37-21.31L138.37-21.31L138.37-21.31Q139.84-25.22 142.53-28.03L142.53-28.03L142.53-28.03Q148.03-33.92 157.12-33.92L157.12-33.92L157.12-33.92Q160.38-33.92 162.75-32.83L162.75-32.83L173.70-33.92L168.96-8.96L168.96-8.96Q168.77-8.19 168.77-6.78L168.77-6.78L168.77-6.78Q168.77-5.38 169.63-4.48L169.63-4.48L169.63-4.48Q170.50-3.58 171.78-3.46L171.78-3.46L171.78-3.46Q171.14-1.28 168.80 0L168.80 0L168.80 0Q166.46 1.28 163.84 1.28L163.84 1.28L163.84 1.28Q161.22 1.28 159.46 0.29L159.46 0.29L159.46 0.29Q157.70-0.70 157.18-2.37L157.18-2.37L157.18-2.37Q156.16-0.77 153.98 0.26L153.98 0.26L153.98 0.26Q151.81 1.28 148.90 1.28L148.90 1.28L148.90 1.28Q145.98 1.28 143.62 0.51L143.62 0.51L143.62 0.51Q141.25-0.26 139.74-1.92ZM153.25-27.90L153.25-27.90L153.25-27.90Q152.51-26.75 151.87-24.80L151.87-24.80L151.87-24.80Q151.23-22.85 150.18-17.63L150.18-17.63L150.18-17.63Q149.12-12.42 149.12-8.70L149.12-8.70L149.12-8.70Q149.12-4.99 149.70-3.90L149.70-3.90L149.70-3.90Q150.27-2.82 151.30-2.82L151.30-2.82L151.30-2.82Q153.34-2.82 154.85-4.77L154.85-4.77L154.85-4.77Q156.35-6.72 156.93-10.18L156.93-10.18L160.32-28.93L160.32-28.93Q158.98-30.08 157.41-30.08L157.41-30.08L157.41-30.08Q155.84-30.08 154.91-29.57L154.91-29.57L154.91-29.57Q153.98-29.06 153.25-27.90ZM196.29-22.46L196.29-22.46L196.29-22.46Q197.18-24.83 197.18-26.88L197.18-26.88L197.18-26.88Q197.18-30.66 194.11-30.66L194.11-30.66L194.11-30.66Q192.51-30.66 191.20-29.22L191.20-29.22L191.20-29.22Q189.89-27.78 189.89-25.98L189.89-25.98L189.89-25.98Q189.89-24.70 190.91-23.68L190.91-23.68L190.91-23.68Q192.38-22.27 196.16-19.97L196.16-19.97L196.16-19.97Q199.94-17.66 201.38-15.78L201.38-15.78L201.38-15.78Q202.82-13.89 202.82-11.30L202.82-11.30L202.82-11.30Q202.82-8.70 201.57-6.34L201.57-6.34L201.57-6.34Q200.32-3.97 198.08-2.30L198.08-2.30L198.08-2.30Q193.28 1.28 185.60 1.28L185.60 1.28L185.60 1.28Q181.44 1.28 178.24-0.90L178.24-0.90L178.24-0.90Q175.04-3.01 175.04-5.50L175.04-5.50L175.04-5.50Q175.04-8 176.86-9.47L176.86-9.47L176.86-9.47Q178.69-10.94 181.38-10.94L181.38-10.94L181.38-10.94Q184.06-10.94 185.73-9.92L185.73-9.92L185.73-9.92Q184.90-7.81 184.90-6.40L184.90-6.40L184.90-6.40Q184.90-2.18 188.48-2.18L188.48-2.18L188.48-2.18Q190.02-2.18 191.04-3.14L191.04-3.14L191.04-3.14Q192.06-4.10 192.06-5.76L192.06-5.76L192.06-5.76Q192.06-9.02 186.56-12.48L186.56-12.48L186.56-12.48Q182.08-15.42 181.06-16.58L181.06-16.58L181.06-16.58Q179.33-18.62 179.33-21.18L179.33-21.18L179.33-21.18Q179.33-23.74 180.54-26.18L180.54-26.18L180.54-26.18Q181.76-28.61 184-30.34L184-30.34L184-30.34Q188.67-33.92 196.80-33.92L196.80-33.92L196.80-33.92Q200.96-33.92 203.42-32.26L203.42-32.26L203.42-32.26Q205.89-30.59 205.89-27.78L205.89-27.78L205.89-27.78Q205.89-24.96 204.19-23.36L204.19-23.36L204.19-23.36Q202.50-21.76 199.42-21.76L199.42-21.76L199.42-21.76Q197.31-21.76 196.29-22.46ZM211.04-1.92L211.04-1.92L211.04-1.92Q209.54-3.58 208.86-6.21L208.86-6.21L208.86-6.21Q208.19-8.83 208.19-13.12L208.19-13.12L208.19-13.12Q208.19-17.41 209.66-21.31L209.66-21.31L209.66-21.31Q211.14-25.22 213.82-28.03L213.82-28.03L213.82-28.03Q219.33-33.92 228.42-33.92L228.42-33.92L228.42-33.92Q231.68-33.92 234.05-32.83L234.05-32.83L244.99-33.92L240.26-8.96L240.26-8.96Q240.06-8.19 240.06-6.78L240.06-6.78L240.06-6.78Q240.06-5.38 240.93-4.48L240.93-4.48L240.93-4.48Q241.79-3.58 243.07-3.46L243.07-3.46L243.07-3.46Q242.43-1.28 240.10 0L240.10 0L240.10 0Q237.76 1.28 235.14 1.28L235.14 1.28L235.14 1.28Q232.51 1.28 230.75 0.29L230.75 0.29L230.75 0.29Q228.99-0.70 228.48-2.37L228.48-2.37L228.48-2.37Q227.46-0.77 225.28 0.26L225.28 0.26L225.28 0.26Q223.10 1.28 220.19 1.28L220.19 1.28L220.19 1.28Q217.28 1.28 214.91 0.51L214.91 0.51L214.91 0.51Q212.54-0.26 211.04-1.92ZM224.54-27.90L224.54-27.90L224.54-27.90Q223.81-26.75 223.17-24.80L223.17-24.80L223.17-24.80Q222.53-22.85 221.47-17.63L221.47-17.63L221.47-17.63Q220.42-12.42 220.42-8.70L220.42-8.70L220.42-8.70Q220.42-4.99 220.99-3.90L220.99-3.90L220.99-3.90Q221.57-2.82 222.59-2.82L222.59-2.82L222.59-2.82Q224.64-2.82 226.14-4.77L226.14-4.77L226.14-4.77Q227.65-6.72 228.22-10.18L228.22-10.18L231.62-28.93L231.62-28.93Q230.27-30.08 228.70-30.08L228.70-30.08L228.70-30.08Q227.14-30.08 226.21-29.57L226.21-29.57L226.21-29.57Q225.28-29.06 224.54-27.90Z" fill="#4ed7fe"></path></g></g><style>text {
  font-size: 64px;
  font-family: Arial Black;
  dominant-baseline: central;
  text-anchor: middle;
}</style></svg>